<svg width="201" height="150" viewBox="0 0 201 150" fill="none" xmlns="http://www.w3.org/2000/svg">
<path d="M1.27592 108.603H45.6014C45.7441 108.603 45.8856 108.575 46.0174 108.52C46.1493 108.466 46.2691 108.386 46.37 108.285C46.471 108.184 46.5509 108.064 46.6055 107.932C46.6602 107.8 46.6883 107.659 46.6883 107.516C46.6929 107.385 46.6701 107.254 46.6213 107.132C46.5724 107.01 46.4987 106.899 46.4048 106.807L24.1002 78.4542C23.9963 78.3468 23.8713 78.262 23.7331 78.2051C23.5948 78.1481 23.4463 78.1203 23.2968 78.1234C23.0494 78.0549 22.7882 78.0549 22.5409 78.1234V78.3596L1.03956 106.713L0.472517 106.807C0.424322 107.009 0.424322 107.22 0.472517 107.422C0.441088 107.683 0.505102 107.946 0.652782 108.163C0.800462 108.38 1.02188 108.537 1.27592 108.603Z" fill="white"/>
<path d="M45.4597 112.62H1.08693C0.798669 112.62 0.522249 112.734 0.31842 112.938C0.114592 113.142 0 113.419 0 113.707V148.487C0 148.775 0.114592 149.051 0.31842 149.255C0.522249 149.459 0.798669 149.574 1.08693 149.574H15.2636V127.694C15.2636 127.406 15.378 127.13 15.5818 126.926C15.7857 126.722 16.0621 126.608 16.3503 126.608H29.6292C29.9175 126.608 30.1939 126.722 30.3977 126.926C30.6016 127.13 30.716 127.406 30.716 127.694V149.574H45.3652C45.6535 149.574 45.9299 149.459 46.1337 149.255C46.3376 149.051 46.4522 148.775 46.4522 148.487V113.707C46.4532 113.434 46.3517 113.171 46.1679 112.97C45.9841 112.768 45.7313 112.644 45.4597 112.62Z" fill="white"/>
<path d="M198.945 103.547H154.998C154.722 103.547 154.458 103.656 154.263 103.851C154.068 104.046 153.958 104.311 153.958 104.586V148.959C153.958 149.235 154.068 149.499 154.263 149.694C154.458 149.889 154.722 149.999 154.998 149.999H198.945C199.086 150.005 199.226 149.983 199.358 149.934C199.489 149.884 199.61 149.809 199.711 149.712C199.813 149.614 199.894 149.498 199.949 149.368C200.004 149.239 200.032 149.1 200.032 148.959V104.586C200.032 104.446 200.004 104.307 199.949 104.177C199.894 104.048 199.813 103.931 199.711 103.834C199.61 103.737 199.489 103.661 199.358 103.612C199.226 103.563 199.086 103.54 198.945 103.547ZM174.892 132.514C174.892 132.79 174.783 133.055 174.588 133.25C174.393 133.445 174.128 133.554 173.853 133.554H160.668C160.528 133.56 160.388 133.538 160.256 133.489C160.124 133.44 160.004 133.364 159.903 133.267C159.801 133.17 159.72 133.053 159.665 132.924C159.61 132.794 159.582 132.655 159.582 132.514V124.528C159.582 124.388 159.61 124.249 159.665 124.119C159.72 123.99 159.801 123.873 159.903 123.776C160.004 123.679 160.124 123.603 160.256 123.554C160.388 123.504 160.528 123.482 160.668 123.489H173.805C173.942 123.489 174.077 123.516 174.203 123.568C174.329 123.62 174.444 123.697 174.541 123.793C174.637 123.89 174.714 124.004 174.766 124.13C174.818 124.257 174.845 124.392 174.845 124.528L174.892 132.514ZM174.892 117.771C174.892 118.047 174.783 118.311 174.588 118.506C174.393 118.701 174.128 118.81 173.853 118.81H160.668C160.528 118.817 160.388 118.795 160.256 118.745C160.124 118.696 160.004 118.62 159.903 118.523C159.801 118.426 159.72 118.309 159.665 118.18C159.61 118.051 159.582 117.911 159.582 117.771V109.785C159.582 109.644 159.61 109.505 159.665 109.375C159.72 109.246 159.801 109.129 159.903 109.032C160.004 108.935 160.124 108.859 160.256 108.81C160.388 108.761 160.528 108.739 160.668 108.745H173.805C173.942 108.745 174.077 108.772 174.203 108.824C174.329 108.876 174.444 108.953 174.541 109.049C174.637 109.146 174.714 109.261 174.766 109.387C174.818 109.513 174.845 109.648 174.845 109.785L174.892 117.771ZM194.976 132.514C194.976 132.655 194.948 132.794 194.893 132.924C194.837 133.053 194.757 133.17 194.655 133.267C194.553 133.364 194.433 133.44 194.301 133.489C194.17 133.538 194.029 133.56 193.889 133.554H180.799C180.659 133.56 180.518 133.538 180.387 133.489C180.255 133.44 180.135 133.364 180.033 133.267C179.932 133.17 179.851 133.053 179.796 132.924C179.741 132.794 179.712 132.655 179.712 132.514V124.528C179.712 124.388 179.741 124.249 179.796 124.119C179.851 123.99 179.932 123.873 180.033 123.776C180.135 123.679 180.255 123.603 180.387 123.554C180.518 123.504 180.659 123.482 180.799 123.489H193.889C194.029 123.482 194.17 123.504 194.301 123.554C194.433 123.603 194.553 123.679 194.655 123.776C194.757 123.873 194.837 123.99 194.893 124.119C194.948 124.249 194.976 124.388 194.976 124.528V132.514ZM194.976 117.771C194.976 117.911 194.948 118.051 194.893 118.18C194.837 118.309 194.757 118.426 194.655 118.523C194.553 118.62 194.433 118.696 194.301 118.745C194.17 118.795 194.029 118.817 193.889 118.81H180.799C180.659 118.817 180.518 118.795 180.387 118.745C180.255 118.696 180.135 118.62 180.033 118.523C179.932 118.426 179.851 118.309 179.796 118.18C179.741 118.051 179.712 117.911 179.712 117.771V109.785C179.712 109.644 179.741 109.505 179.796 109.375C179.851 109.246 179.932 109.129 180.033 109.032C180.135 108.935 180.255 108.859 180.387 108.81C180.518 108.761 180.659 108.739 180.799 108.745H193.889C194.029 108.739 194.17 108.761 194.301 108.81C194.433 108.859 194.553 108.935 194.655 109.032C194.757 109.129 194.837 109.246 194.893 109.375C194.948 109.505 194.976 109.644 194.976 109.785V117.771Z" fill="white"/>
<path d="M96.779 0.53003H53.7765C53.4883 0.53003 53.2119 0.64455 53.008 0.848378C52.8042 1.05221 52.6896 1.3287 52.6896 1.61696V148.581C52.6895 148.722 52.7179 148.861 52.7731 148.99C52.8283 149.12 52.909 149.236 53.0106 149.334C53.1122 149.431 53.2326 149.506 53.3642 149.556C53.4959 149.605 53.6361 149.627 53.7765 149.621H96.779C97.0547 149.621 97.3191 149.511 97.514 149.316C97.709 149.121 97.8186 148.857 97.8186 148.581V1.61696C97.825 1.47651 97.8028 1.33622 97.7534 1.20458C97.7041 1.07294 97.6285 0.952645 97.5313 0.851046C97.4342 0.749447 97.3173 0.668632 97.188 0.613457C97.0587 0.558281 96.9196 0.529885 96.779 0.53003ZM71.1665 132.845C71.1665 132.996 71.1068 133.14 71.0005 133.246C70.8942 133.353 70.7498 133.412 70.5994 133.412H60.7704C60.62 133.412 60.4757 133.353 60.3693 133.246C60.263 133.14 60.2033 132.996 60.2033 132.845V121.835C60.203 121.762 60.2179 121.691 60.2469 121.624C60.2759 121.558 60.3184 121.498 60.3718 121.449C60.4252 121.4 60.4882 121.363 60.5568 121.34C60.6254 121.317 60.6983 121.308 60.7704 121.315H70.5994C70.6716 121.308 70.7443 121.317 70.8129 121.34C70.8815 121.363 70.9445 121.4 70.9979 121.449C71.0513 121.498 71.0939 121.558 71.1229 121.624C71.152 121.691 71.1668 121.762 71.1665 121.835V132.845ZM71.1665 107.611C71.1665 107.761 71.1068 107.905 71.0005 108.012C70.8942 108.118 70.7498 108.178 70.5994 108.178H60.7704C60.62 108.178 60.4757 108.118 60.3693 108.012C60.263 107.905 60.2033 107.761 60.2033 107.611V96.6476C60.2033 96.4972 60.263 96.353 60.3693 96.2466C60.4757 96.1403 60.62 96.0805 60.7704 96.0805H70.5994C70.7498 96.0805 70.8942 96.1403 71.0005 96.2466C71.1068 96.353 71.1665 96.4972 71.1665 96.6476V107.611ZM71.1665 82.4237C71.1665 82.5741 71.1068 82.7183 71.0005 82.8247C70.8942 82.931 70.7498 82.9908 70.5994 82.9908H60.7704C60.62 82.9908 60.4757 82.931 60.3693 82.8247C60.263 82.7183 60.2033 82.5741 60.2033 82.4237V71.4605C60.2033 71.3101 60.263 71.1658 60.3693 71.0595C60.4757 70.9531 60.62 70.8933 60.7704 70.8933H70.5994C70.7498 70.8933 70.8942 70.9531 71.0005 71.0595C71.1068 71.1658 71.1665 71.3101 71.1665 71.4605V82.4237ZM71.1665 57.2365C71.1665 57.3869 71.1068 57.5312 71.0005 57.6375C70.8942 57.7439 70.7498 57.8036 70.5994 57.8036H60.7704C60.62 57.8036 60.4757 57.7439 60.3693 57.6375C60.263 57.5312 60.2033 57.3869 60.2033 57.2365V46.3205C60.2033 46.1701 60.263 46.0259 60.3693 45.9196C60.4757 45.8132 60.62 45.7535 60.7704 45.7535H70.5994C70.7498 45.7535 70.8942 45.8132 71.0005 45.9196C71.1068 46.0259 71.1665 46.1701 71.1665 46.3205V57.2365ZM71.1665 32.0494C71.1665 32.1998 71.1068 32.344 71.0005 32.4504C70.8942 32.5567 70.7498 32.6165 70.5994 32.6165H60.7704C60.62 32.6165 60.4757 32.5567 60.3693 32.4504C60.263 32.344 60.2033 32.1998 60.2033 32.0494V21.0389C60.2033 20.8885 60.263 20.7443 60.3693 20.638C60.4757 20.5316 60.62 20.4718 60.7704 20.4718H70.5994C70.7498 20.4718 70.8942 20.5316 71.0005 20.638C71.1068 20.7443 71.1665 20.8885 71.1665 21.0389V32.0494ZM90.4939 132.845C90.4939 132.996 90.4343 133.14 90.3279 133.246C90.2216 133.353 90.0773 133.412 89.9269 133.412H80.0978C79.9474 133.412 79.8031 133.353 79.6968 133.246C79.5904 133.14 79.5308 132.996 79.5308 132.845V121.835C79.5305 121.762 79.5453 121.691 79.5743 121.624C79.6034 121.558 79.6458 121.498 79.6992 121.449C79.7526 121.4 79.8158 121.363 79.8844 121.34C79.953 121.317 80.0257 121.308 80.0978 121.315H89.9269C89.999 121.308 90.0717 121.317 90.1403 121.34C90.209 121.363 90.2721 121.4 90.3255 121.449C90.3789 121.498 90.4214 121.558 90.4504 121.624C90.4794 121.691 90.4942 121.762 90.4939 121.835V132.845ZM90.4939 107.611C90.4939 107.761 90.4343 107.905 90.3279 108.012C90.2216 108.118 90.0773 108.178 89.9269 108.178H80.0978C79.9474 108.178 79.8031 108.118 79.6968 108.012C79.5904 107.905 79.5308 107.761 79.5308 107.611V96.6476C79.5308 96.4972 79.5904 96.353 79.6968 96.2466C79.8031 96.1403 79.9474 96.0805 80.0978 96.0805H89.9269C90.0773 96.0805 90.2216 96.1403 90.3279 96.2466C90.4343 96.353 90.4939 96.4972 90.4939 96.6476V107.611ZM90.4939 82.4237C90.4939 82.4982 90.4793 82.5719 90.4508 82.6407C90.4223 82.7095 90.3806 82.772 90.3279 82.8247C90.2753 82.8773 90.2127 82.9191 90.1439 82.9476C90.0751 82.9761 90.0014 82.9908 89.9269 82.9908H80.0978C80.0234 82.9908 79.9496 82.9761 79.8808 82.9476C79.812 82.9191 79.7494 82.8773 79.6968 82.8247C79.6441 82.772 79.6024 82.7095 79.5739 82.6407C79.5454 82.5719 79.5308 82.4982 79.5308 82.4237V71.4605C79.5308 71.3101 79.5904 71.1658 79.6968 71.0595C79.8031 70.9531 79.9474 70.8933 80.0978 70.8933H89.9269C90.0773 70.8933 90.2216 70.9531 90.3279 71.0595C90.4343 71.1658 90.4939 71.3101 90.4939 71.4605V82.4237ZM90.4939 57.2365C90.4939 57.3869 90.4343 57.5312 90.3279 57.6375C90.2216 57.7439 90.0773 57.8036 89.9269 57.8036H80.0978C79.9474 57.8036 79.8031 57.7439 79.6968 57.6375C79.5904 57.5312 79.5308 57.3869 79.5308 57.2365V46.3205C79.5308 46.1701 79.5904 46.0259 79.6968 45.9196C79.8031 45.8132 79.9474 45.7535 80.0978 45.7535H89.9269C90.0773 45.7535 90.2216 45.8132 90.3279 45.9196C90.4343 46.0259 90.4939 46.1701 90.4939 46.3205V57.2365ZM90.4939 32.0494C90.4939 32.1998 90.4343 32.344 90.3279 32.4504C90.2216 32.5567 90.0773 32.6165 89.9269 32.6165H80.0978C79.9474 32.6165 79.8031 32.5567 79.6968 32.4504C79.5904 32.344 79.5308 32.1998 79.5308 32.0494V21.0389C79.5308 20.8885 79.5904 20.7443 79.6968 20.638C79.8031 20.5316 79.9474 20.4718 80.0978 20.4718H89.9269C90.0773 20.4718 90.2216 20.5316 90.3279 20.638C90.4343 20.7443 90.4939 20.8885 90.4939 21.0389V32.0494Z" fill="white"/>
<path d="M199.04 89.3701H154.856C154.36 89.3701 153.958 89.7721 153.958 90.268V99.1048C153.958 99.6006 154.36 100.003 154.856 100.003H199.04C199.536 100.003 199.938 99.6006 199.938 99.1048V90.268C199.938 89.7721 199.536 89.3701 199.04 89.3701Z" fill="white"/>
<path d="M148.713 28.3162C148.644 28.0784 148.502 27.8684 148.307 27.7157C148.112 27.5631 147.873 27.4756 147.626 27.4657C147.426 27.4007 147.211 27.4007 147.012 27.4657L146.681 27.8909L104.434 81.8094C104.317 81.9182 104.223 82.0497 104.158 82.1959C104.093 82.3421 104.059 82.5 104.057 82.66V148.534C104.057 148.822 104.171 149.099 104.375 149.303C104.579 149.506 104.855 149.621 105.143 149.621H148.098C148.239 149.621 148.378 149.593 148.508 149.537C148.637 149.482 148.754 149.401 148.851 149.3C148.948 149.198 149.024 149.078 149.073 148.946C149.122 148.815 149.144 148.674 149.138 148.534V28.5052C149.011 28.4135 148.866 28.3492 148.713 28.3162ZM130.898 57.4256L131.228 57.0475C134.111 53.3144 138.978 47.3129 141.341 44.4303L141.672 44.0523C141.784 43.9082 141.927 43.791 142.091 43.7092C142.254 43.6275 142.434 43.5832 142.617 43.5797C142.895 43.5935 143.161 43.698 143.375 43.8771C143.588 44.0563 143.737 44.3004 143.798 44.5721V58.1344C143.798 58.4522 143.676 58.7578 143.455 58.9869C143.235 59.216 142.934 59.3508 142.617 59.3631H131.843C131.525 59.3508 131.225 59.216 131.004 58.9869C130.784 58.7578 130.661 58.4522 130.661 58.1344C130.661 57.8788 130.744 57.6301 130.898 57.4256ZM124.235 132.514C124.235 132.655 124.206 132.794 124.151 132.923C124.096 133.053 124.015 133.17 123.914 133.267C123.812 133.364 123.692 133.439 123.56 133.489C123.428 133.538 123.288 133.56 123.148 133.554H110.341C110.066 133.554 109.801 133.445 109.606 133.25C109.411 133.055 109.302 132.79 109.302 132.514V124.481C109.302 124.205 109.411 123.941 109.606 123.746C109.801 123.551 110.066 123.441 110.341 123.441H123.337C123.477 123.435 123.617 123.457 123.749 123.507C123.881 123.556 124.001 123.631 124.103 123.729C124.204 123.826 124.285 123.943 124.34 124.072C124.395 124.201 124.424 124.34 124.424 124.481L124.235 132.514ZM124.235 117.676C124.235 117.817 124.206 117.956 124.151 118.085C124.096 118.215 124.015 118.331 123.914 118.429C123.812 118.526 123.692 118.601 123.56 118.651C123.428 118.7 123.288 118.722 123.148 118.716H110.341C110.066 118.716 109.801 118.606 109.606 118.411C109.411 118.216 109.302 117.952 109.302 117.676V109.643C109.302 109.367 109.411 109.103 109.606 108.908C109.801 108.713 110.066 108.603 110.341 108.603H123.337C123.477 108.597 123.617 108.619 123.749 108.668C123.881 108.718 124.001 108.793 124.103 108.89C124.204 108.988 124.285 109.104 124.34 109.234C124.395 109.363 124.424 109.502 124.424 109.643L124.235 117.676ZM124.235 102.838C124.235 103.126 124.12 103.403 123.916 103.607C123.712 103.81 123.436 103.925 123.148 103.925H110.341C110.201 103.925 110.062 103.897 109.932 103.841C109.803 103.786 109.686 103.705 109.589 103.604C109.492 103.502 109.416 103.382 109.367 103.25C109.318 103.119 109.295 102.978 109.302 102.838V94.8519C109.295 94.7114 109.318 94.5711 109.367 94.4395C109.416 94.3079 109.492 94.1876 109.589 94.086C109.686 93.9844 109.803 93.9035 109.932 93.8484C110.062 93.7932 110.201 93.7649 110.341 93.765H123.337C123.625 93.765 123.901 93.8795 124.105 94.0834C124.309 94.2872 124.424 94.5636 124.424 94.8519L124.235 102.838ZM124.235 70.3735V87.9053C124.235 88.181 124.125 88.4455 123.93 88.6404C123.735 88.8354 123.471 88.9449 123.195 88.9449H110.389C110.237 88.973 110.081 88.967 109.933 88.9274C109.784 88.8879 109.645 88.8158 109.528 88.7163C109.41 88.6168 109.316 88.4925 109.253 88.3522C109.189 88.212 109.157 88.0593 109.16 87.9053V85.6843C109.133 85.5597 109.133 85.4308 109.16 85.3062C110.814 82.9907 118.186 73.8704 121.305 70.09L121.636 69.7119C121.777 69.5367 121.966 69.4056 122.179 69.3341C122.393 69.2626 122.622 69.2536 122.841 69.3082C123.06 69.3629 123.258 69.4788 123.413 69.6424C123.567 69.8061 123.672 70.0105 123.715 70.2318L124.235 70.3735ZM143.798 132.514C143.798 132.79 143.689 133.055 143.494 133.25C143.299 133.445 143.034 133.554 142.759 133.554H129.952C129.816 133.554 129.681 133.527 129.555 133.475C129.428 133.423 129.314 133.346 129.217 133.25C129.121 133.153 129.044 133.038 128.992 132.912C128.94 132.786 128.913 132.651 128.913 132.514V124.481C128.913 124.345 128.94 124.209 128.992 124.083C129.044 123.957 129.121 123.842 129.217 123.746C129.314 123.649 129.428 123.573 129.555 123.521C129.681 123.468 129.816 123.441 129.952 123.441H142.759C143.034 123.441 143.299 123.551 143.494 123.746C143.689 123.941 143.798 124.205 143.798 124.481V132.514ZM143.798 117.676C143.798 117.952 143.689 118.216 143.494 118.411C143.299 118.606 143.034 118.716 142.759 118.716H129.952C129.816 118.716 129.681 118.689 129.555 118.637C129.428 118.584 129.314 118.508 129.217 118.411C129.121 118.315 129.044 118.2 128.992 118.074C128.94 117.948 128.913 117.813 128.913 117.676V109.643C128.913 109.506 128.94 109.371 128.992 109.245C129.044 109.119 129.121 109.004 129.217 108.908C129.314 108.811 129.428 108.735 129.555 108.682C129.681 108.63 129.816 108.603 129.952 108.603H142.759C143.034 108.603 143.299 108.713 143.494 108.908C143.689 109.103 143.798 109.367 143.798 109.643V117.676ZM143.798 102.838C143.805 102.978 143.783 103.119 143.733 103.25C143.684 103.382 143.608 103.502 143.511 103.604C143.414 103.705 143.297 103.786 143.168 103.841C143.038 103.897 142.899 103.925 142.759 103.925H129.952C129.812 103.925 129.673 103.897 129.543 103.841C129.414 103.786 129.297 103.705 129.2 103.604C129.103 103.502 129.027 103.382 128.978 103.25C128.929 103.119 128.906 102.978 128.913 102.838V94.8519C128.906 94.7114 128.929 94.5711 128.978 94.4395C129.027 94.3079 129.103 94.1876 129.2 94.086C129.297 93.9844 129.414 93.9035 129.543 93.8484C129.673 93.7932 129.812 93.7649 129.952 93.765H142.759C142.899 93.7649 143.038 93.7932 143.168 93.8484C143.297 93.9035 143.414 93.9844 143.511 94.086C143.608 94.1876 143.684 94.3079 143.733 94.4395C143.783 94.5711 143.805 94.7114 143.798 94.8519V102.838ZM143.798 88.0471C143.798 88.3228 143.689 88.5872 143.494 88.7822C143.299 88.9772 143.034 89.0867 142.759 89.0867H129.952C129.816 89.0867 129.681 89.0598 129.555 89.0076C129.428 88.9553 129.314 88.8787 129.217 88.7822C129.121 88.6857 129.044 88.5711 128.992 88.445C128.94 88.3188 128.913 88.1836 128.913 88.0471V80.0137C128.913 79.8771 128.94 79.7419 128.992 79.6158C129.044 79.4897 129.121 79.3751 129.217 79.2785C129.314 79.182 129.428 79.1054 129.555 79.0531C129.681 79.0009 129.816 78.974 129.952 78.974H142.759C143.034 78.974 143.299 79.0836 143.494 79.2785C143.689 79.4735 143.798 79.7379 143.798 80.0137V88.0471ZM143.798 73.2089C143.798 73.4846 143.689 73.749 143.494 73.944C143.299 74.139 143.034 74.2485 142.759 74.2485H129.952C129.816 74.2485 129.681 74.2216 129.555 74.1693C129.428 74.1171 129.314 74.0405 129.217 73.944C129.121 73.8475 129.044 73.7329 128.992 73.6068C128.94 73.4806 128.913 73.3454 128.913 73.2089V65.1755C128.913 65.0389 128.94 64.9037 128.992 64.7776C129.044 64.6515 129.121 64.5369 129.217 64.4403C129.314 64.3438 129.428 64.2672 129.555 64.2149C129.681 64.1627 129.816 64.1358 129.952 64.1358H142.759C143.034 64.1358 143.299 64.2454 143.494 64.4403C143.689 64.6353 143.798 64.8997 143.798 65.1755V73.2089Z" fill="white"/>
</svg>
