<svg width="147" height="155" viewBox="0 0 147 155" fill="none" xmlns="http://www.w3.org/2000/svg">
<path d="M132.333 36.6584L101.329 65.9072C100.689 66.4297 100.191 67.1066 99.8844 67.874C99.5774 68.6415 99.4706 69.4744 99.5741 70.2945V152.874C99.5739 153.344 99.7573 153.795 100.085 154.132C100.413 154.469 100.859 154.665 101.329 154.677H133.356C133.826 154.665 134.273 154.469 134.6 154.132C134.928 153.795 135.112 153.344 135.111 152.874V37.2922C135.111 36.3172 134.331 34.5623 132.333 36.561" fill="white"/>
<path d="M43.0753 75.0718L12.1203 104.321C11.4808 104.857 10.9821 105.541 10.6677 106.315C10.3534 107.088 10.2329 107.926 10.3167 108.757V152.922C10.329 153.397 10.523 153.848 10.8586 154.184C11.1942 154.52 11.6459 154.714 12.1203 154.726H44.099C44.5689 154.713 45.0152 154.518 45.343 154.181C45.6708 153.844 45.8541 153.392 45.8539 152.922V75.8029C45.8539 74.828 45.074 73.0243 43.0753 75.0718Z" fill="white"/>
<path d="M146.372 0.926148C146.424 0.819831 146.451 0.703184 146.451 0.584951C146.451 0.466719 146.424 0.349997 146.372 0.24368C146.201 0.11421 146 0.0304014 145.787 0H145.397L121.657 5.36223H121.218H120.779C120.615 5.54196 120.524 5.77678 120.524 6.02037C120.524 6.26397 120.615 6.49871 120.779 6.67844V6.9222L126.19 12.3332L72.5676 65.9559L47.755 41.0945C47.609 40.9798 47.4287 40.9175 47.2431 40.9175C47.0575 40.9175 46.8772 40.9798 46.7313 41.0945L40.004 47.8704L0.176958 87.6488C0.0623093 87.7948 0 87.975 0 88.1606C0 88.3462 0.0623093 88.5265 0.176958 88.6724L6.85544 95.7897C6.91491 95.8613 6.98939 95.9189 7.07364 95.9584C7.15789 95.998 7.24984 96.0185 7.34291 96.0185C7.43598 96.0185 7.52789 95.998 7.61214 95.9584C7.69639 95.9189 7.77091 95.8613 7.83038 95.7897L47.0237 56.7913L65.0604 74.828L71.7877 81.5553C71.8517 81.6279 71.9305 81.6861 72.0187 81.7259C72.107 81.7657 72.2027 81.7863 72.2995 81.7863C72.3963 81.7863 72.4921 81.7657 72.5803 81.7259C72.6686 81.6861 72.7473 81.6279 72.8114 81.5553L133.795 20.5716L139.645 26.0801C139.816 26.2412 140.043 26.3308 140.279 26.3308C140.514 26.3308 140.741 26.2412 140.912 26.0801C140.969 25.8893 140.969 25.686 140.912 25.4951L146.128 1.12118L146.372 0.926148Z" fill="white"/>
<path d="M87.8745 80.2392L72.8602 95.3511C72.7341 95.4675 72.5687 95.5322 72.3971 95.5322C72.2254 95.5322 72.0601 95.4675 71.934 95.3511L58.3333 81.5067C55.8472 79.0205 55.3109 81.0191 55.3109 81.9941V153.166C55.3107 153.636 55.4941 154.088 55.8219 154.425C56.1496 154.761 56.596 154.957 57.0658 154.97H89.0932C89.5631 154.957 90.0094 154.761 90.3372 154.425C90.665 154.088 90.8483 153.636 90.8482 153.166V80.7754C90.8482 79.8004 90.0682 78.0455 87.8745 80.2392Z" fill="white"/>
</svg>
