<svg width="199" height="162" viewBox="0 0 199 162" fill="none" xmlns="http://www.w3.org/2000/svg">
<path d="M78.0594 47.2497L14.5115 10.4887V129.321L78.0594 148.47V47.2497Z" fill="white"/>
<path d="M85.0697 47.4776V148.527L149.074 129.264V10.4887L85.0697 47.4776Z" fill="white"/>
<path d="M185.834 127.212H183.954L191.477 153.486L199 127.212H197.119H199V21.4885H197.119H195.238H193.244H189.539H187.658H185.834H183.954V127.212H185.834Z" fill="white"/>
<path d="M162.752 15.6182L155.913 10.2038V132.512L85.2407 155.367H81.992H81.3651H78.0594L7.72924 135.704V10.2038L0.890015 15.6182V140.491L77.7745 161.75H81.3651H81.992H85.5826L156.483 139.237L162.752 137.414V15.6182Z" fill="white"/>
<path d="M199 7.52487C199 5.5296 198.207 3.61606 196.796 2.2052C195.386 0.794329 193.472 0.00170898 191.477 0.00170898C189.482 0.00170898 187.568 0.794329 186.157 2.2052C184.746 3.61606 183.954 5.5296 183.954 7.52487V15.618H199V7.52487Z" fill="white"/>
</svg>
