<svg width="138" height="186" viewBox="0 0 138 186" fill="none" xmlns="http://www.w3.org/2000/svg">
<path d="M137.435 0.0521851H94.0655C93.9166 0.0521851 93.7737 0.111372 93.6683 0.216725C93.563 0.322078 93.5039 0.46496 93.5039 0.613952V14.9954C93.5039 15.1444 93.563 15.2873 93.6683 15.3927C93.7737 15.498 93.9166 15.5572 94.0655 15.5572H111.368L92.1555 34.6014C85.2698 29.2414 77.2418 25.5401 68.6943 23.7846C60.1467 22.0292 51.3095 22.2668 42.8686 24.4792C34.4278 26.6915 26.6103 30.819 20.0227 36.5414C13.435 42.2637 8.25448 49.4271 4.88312 57.4754C1.51175 65.5238 0.0402397 74.2407 0.582705 82.9498C1.12517 91.6589 3.66699 100.126 8.01105 107.694C12.3551 115.261 18.3845 121.727 25.6313 126.587C32.8782 131.448 41.1476 134.573 49.7978 135.721V152.574H32.9445C32.7955 152.574 32.6526 152.634 32.5473 152.739C32.4419 152.844 32.3827 152.987 32.3827 153.136V168.585C32.3827 168.734 32.4419 168.877 32.5473 168.982C32.6526 169.088 32.7955 169.147 32.9445 169.147H49.7978V185.494C49.8117 185.633 49.877 185.762 49.9809 185.856C50.0847 185.949 50.2196 186.001 50.3594 186H65.8082C65.948 186.001 66.0831 185.949 66.1869 185.856C66.2908 185.762 66.3561 185.633 66.37 185.494V169.147H83.2233C83.3723 169.147 83.5152 169.088 83.6205 168.982C83.7259 168.877 83.7851 168.734 83.7851 168.585V153.136C83.7851 152.987 83.7259 152.844 83.6205 152.739C83.5152 152.634 83.3723 152.574 83.2233 152.574H66.37V135.721C75.8608 134.157 84.799 130.209 92.3463 124.246C99.8937 118.283 105.803 110.501 109.52 101.629C113.237 92.7576 114.64 83.0874 113.598 73.5253C112.555 63.9632 109.101 54.8225 103.56 46.9605L122.492 28.0848V44.2078C122.492 44.3568 122.551 44.4996 122.656 44.605C122.761 44.7104 122.904 44.7695 123.053 44.7695H137.435C137.584 44.7695 137.727 44.7104 137.832 44.605C137.937 44.4996 137.996 44.3568 137.996 44.2078V0.894857C138.005 0.818908 137.997 0.741898 137.972 0.669628C137.947 0.597358 137.906 0.531697 137.852 0.477614C137.798 0.423532 137.732 0.38243 137.66 0.357392C137.588 0.332354 137.511 0.324057 137.435 0.33309M57.1008 121.227C48.8319 121.216 40.7522 118.753 33.8838 114.148C27.0154 109.544 21.6672 103.006 18.5157 95.3609C15.3642 87.7161 14.551 79.3083 16.1792 71.2013C17.8073 63.0943 21.8036 55.6524 27.6624 49.8173C33.5212 43.9821 40.9791 40.0159 49.0926 38.4204C57.2061 36.825 65.6106 37.672 73.2426 40.8543C80.8746 44.0366 87.391 49.4113 91.9676 56.2981C96.5442 63.185 98.9754 71.2746 98.9531 79.5435C98.9086 90.6142 94.4793 101.216 86.6353 109.029C78.7913 116.841 68.1716 121.227 57.1008 121.227Z" fill="white"/>
<path d="M82.6616 62.2407H32.1017C31.9676 62.2407 31.8391 62.294 31.7443 62.3888C31.6495 62.4836 31.5962 62.6123 31.5962 62.7464V75.0492C31.5962 75.1833 31.6495 75.3119 31.7443 75.4068C31.8391 75.5016 31.9676 75.5548 32.1017 75.5548H82.6616C82.7325 75.5628 82.8045 75.5556 82.8724 75.5338C82.9404 75.5119 83.003 75.476 83.0561 75.4282C83.1091 75.3804 83.1515 75.3219 83.1803 75.2566C83.2092 75.1913 83.2238 75.1206 83.2234 75.0492V62.6902C83.2238 62.6188 83.2092 62.5481 83.1803 62.4828C83.1515 62.4175 83.1091 62.359 83.0561 62.3112C83.003 62.2635 82.9404 62.2275 82.8724 62.2056C82.8045 62.1838 82.7325 62.1767 82.6616 62.1846" fill="white"/>
<path d="M82.6616 84.2061H32.1017C31.9676 84.2061 31.8391 84.2593 31.7443 84.3542C31.6495 84.449 31.5962 84.5776 31.5962 84.7117V96.9584C31.5962 97.0925 31.6495 97.2211 31.7443 97.3159C31.8391 97.4107 31.9676 97.464 32.1017 97.464H82.6616C82.7325 97.4719 82.8045 97.4647 82.8724 97.4429C82.9404 97.4211 83.003 97.3851 83.0561 97.3373C83.1091 97.2896 83.1515 97.2311 83.1803 97.1658C83.2092 97.1005 83.2238 97.0298 83.2234 96.9584V84.7117C83.2238 84.6403 83.2092 84.5696 83.1803 84.5043C83.1515 84.4389 83.1091 84.3805 83.0561 84.3327C83.003 84.285 82.9404 84.249 82.8724 84.2272C82.8045 84.2053 82.7325 84.1981 82.6616 84.2061Z" fill="white"/>
</svg>
