<svg width="229" height="160" viewBox="0 0 229 160" fill="none" xmlns="http://www.w3.org/2000/svg">
<path d="M228.839 84.4545C229.034 82.2838 228.783 80.0961 228.101 78.0258C227.42 75.9556 226.323 74.0465 224.877 72.4159C223.431 70.7852 221.667 69.4674 219.693 68.5435C217.719 67.6195 215.577 67.1089 213.398 67.043C208.155 68.218 203.454 71.1082 200.038 75.256C197.027 72.1351 191.771 67.043 187.117 67.043C184.926 67.1125 182.77 67.62 180.778 68.5354C178.786 69.4509 176.998 70.7559 175.518 72.3734C174.038 73.991 172.897 75.8884 172.162 77.9539C171.427 80.0193 171.113 82.211 171.238 84.3997C171.231 88.9822 173.02 93.3851 176.221 96.6644L200.093 120.591L223.911 96.6644C227.083 93.3931 228.852 89.0115 228.839 84.4545Z" fill="white"/>
<path d="M127.217 159.685H126.779C125.903 159.625 125.072 159.276 124.417 158.69C123.762 158.105 123.322 157.318 123.165 156.454L111.01 85.8227L92.6679 119.879C92.2679 120.595 91.6543 121.169 90.9128 121.52C90.1712 121.871 89.3386 121.982 88.531 121.837C87.7234 121.693 86.9811 121.3 86.4074 120.713C85.8338 120.127 85.4575 119.376 85.3309 118.565L77.556 63.812L63.2655 95.8973C62.9527 96.5796 62.4518 97.1585 61.8213 97.5659C61.1908 97.9733 60.4572 98.1922 59.7066 98.1969H4.40599C3.85301 98.2624 3.29248 98.21 2.76121 98.0432C2.22994 97.8764 1.74006 97.5989 1.32379 97.229C0.907529 96.8592 0.574299 96.4053 0.346133 95.8974C0.117967 95.3895 0 94.8389 0 94.2821C0 93.7252 0.117967 93.1747 0.346133 92.6667C0.574299 92.1588 0.907529 91.705 1.32379 91.3351C1.74006 90.9652 2.22994 90.6878 2.76121 90.5209C3.29248 90.3541 3.85301 90.3017 4.40599 90.3672H57.2974L76.0778 48.2074C76.4309 47.4389 77.0187 46.8023 77.7566 46.3891C78.4945 45.9759 79.3445 45.8074 80.1842 45.9078C81.034 46.0115 81.8245 46.3968 82.4298 47.0021C83.0351 47.6074 83.4204 48.398 83.5242 49.2477L91.5729 105.424L109.696 71.8607C110.078 71.1319 110.681 70.5431 111.419 70.179C112.157 69.815 112.992 69.6945 113.803 69.8349C114.607 69.9787 115.347 70.3655 115.925 70.943C116.502 71.5206 116.889 72.2613 117.033 73.0653L128.257 138.769L169.158 2.76242C169.395 2.01467 169.85 1.35474 170.465 0.867044C171.079 0.379351 171.825 0.0860796 172.607 0.0247704C173.396 -0.0666768 174.194 0.0965134 174.883 0.490542C175.573 0.884571 176.118 1.4888 176.44 2.2149L197.958 46.7839C198.216 47.2614 198.373 47.7872 198.419 48.3283C198.464 48.8693 198.397 49.4139 198.223 49.928C198.048 50.442 197.769 50.9144 197.403 51.3155C197.037 51.7167 196.592 52.038 196.096 52.2592C195.633 52.481 195.13 52.6089 194.617 52.6353C194.104 52.6617 193.591 52.5862 193.107 52.4131C192.624 52.24 192.179 51.9727 191.799 51.6268C191.42 51.2808 191.112 50.863 190.895 50.3975L173.702 14.8628L130.885 157.221C130.59 157.951 130.083 158.576 129.429 159.015C128.775 159.454 128.005 159.687 127.217 159.685Z" fill="white"/>
</svg>
