<svg width="159" height="161" viewBox="0 0 159 161" fill="none" xmlns="http://www.w3.org/2000/svg">
<path d="M157.74 89.4321L120.509 67.8658V24.8341C120.516 24.3848 120.402 23.942 120.181 23.5514C119.959 23.1607 119.638 22.8364 119.25 22.6118L80.7595 0.338324C80.3766 0.11668 79.9422 0 79.5 0C79.0578 0 78.6234 0.11668 78.2405 0.338324L39.75 22.6118C39.3687 22.844 39.0528 23.17 38.8324 23.5589C38.6119 23.9478 38.4943 24.3868 38.4905 24.8341V67.8658L1.25951 89.4321C0.878788 89.6524 0.562201 89.9689 0.341244 90.3499C0.120287 90.7309 0.00265345 91.1632 0 91.6039V136.151C0.00379356 136.598 0.121439 137.037 0.341859 137.426C0.56228 137.815 0.87817 138.141 1.25951 138.373L39.75 160.646C40.1389 160.878 40.5826 161 41.0346 161C41.4867 161 41.9305 160.878 42.3194 160.646L79.5 139.131L116.731 160.646C117.114 160.869 117.548 160.991 117.99 161C118.431 160.977 118.862 160.857 119.25 160.646L157.74 138.373C158.122 138.141 158.438 137.815 158.658 137.426C158.878 137.037 158.996 136.598 159 136.151V91.6039C158.997 91.1632 158.88 90.7309 158.659 90.3499C158.438 89.9689 158.121 89.6524 157.74 89.4321ZM77.1321 131.757L46.249 113.877L77.1321 96.0484V131.757ZM113.053 69.3304L82.1701 87.2098V51.5016L113.053 69.3304ZM77.1321 87.2098L46.249 69.3304L77.1321 51.5016V87.2098ZM84.7395 91.6039L118.142 72.3103L151.544 91.6039L118.142 110.948L84.7395 91.6039ZM115.572 64.9364L84.7395 47.057L115.572 29.2281V64.9364ZM74.5628 47.057L43.5789 64.8354V29.4807L74.5628 47.057ZM38.6416 154.03L5.23951 134.686V96.0484L38.6416 115.342V154.03ZM43.6796 154.03V118.322L74.5123 136.151L43.6796 154.03ZM154.012 134.686L120.61 154.03V115.342L154.012 96.0484V134.686Z" fill="white"/>
</svg>
