<svg width="176" height="173" viewBox="0 0 176 173" fill="none" xmlns="http://www.w3.org/2000/svg">
<path d="M176 77.2317C175.993 65.2334 171.357 53.7046 163.065 45.0676C154.774 36.4307 143.472 31.3579 131.534 30.9152C128.352 21.874 122.457 14.0461 114.661 8.50953C106.866 2.97298 97.5531 0 88.0056 0C78.4581 0 69.1455 2.97298 61.3499 8.50953C53.5544 14.0461 47.6595 21.874 44.4769 30.9152C35.0089 31.2527 25.8744 34.5112 18.3153 40.2475C10.7562 45.9838 5.13955 53.9195 2.22939 62.9753C-0.680769 72.031 -0.743259 81.7674 2.05036 90.8601C4.84399 99.9528 10.3583 107.961 17.843 113.794C16.627 117.982 16.0149 122.323 16.0258 126.685C16.0364 135.121 18.3377 143.394 22.6817 150.613C27.0258 157.832 33.2479 163.725 40.6785 167.656C48.1091 171.587 56.4666 173.408 64.8511 172.923C73.2355 172.438 81.3294 169.665 88.2612 164.902C95.8234 170.031 104.748 172.755 113.873 172.717C121.009 172.725 128.05 171.069 134.442 167.88C140.833 164.691 146.4 160.056 150.705 154.339C155.01 148.621 157.935 141.979 159.249 134.933C160.564 127.888 160.233 120.632 158.282 113.737C163.805 109.407 168.272 103.868 171.343 97.542C174.413 91.2159 176.006 84.2695 176 77.2317ZM124.89 46.373C124.867 55.2305 121.687 63.787 115.927 70.4936C110.166 77.2003 102.206 81.6139 93.4857 82.9357C93.1723 81.0501 93.0014 79.1433 92.9746 77.2317C92.9884 68.3625 96.172 59.793 101.946 53.0827C107.72 46.3724 115.701 41.9673 124.436 40.669C124.735 42.5555 124.887 44.4627 124.89 46.373ZM88.2044 152.867C84.6913 149.449 81.8918 145.362 79.9696 140.844C78.0474 136.327 77.0411 131.47 77.0093 126.558C76.9776 121.645 77.9211 116.775 79.7848 112.234C81.6486 107.692 84.395 103.568 87.8637 100.105C91.3768 103.523 94.1763 107.61 96.0985 112.127C98.0207 116.645 99.0272 121.501 99.0589 126.414C99.0906 131.327 98.1469 136.196 96.2832 140.738C94.4195 145.28 91.673 149.403 88.2044 152.867ZM51.6323 40.669C60.3674 41.9673 68.3481 46.3724 74.1221 53.0827C79.8961 59.793 83.0797 68.3625 83.0934 77.2317C83.0666 79.1433 82.8958 81.0501 82.5824 82.9357C77.7728 82.2334 73.1501 80.5782 68.9829 78.0663C64.8156 75.5544 61.1869 72.2358 58.3074 68.3034C55.4278 64.3709 53.3548 59.9029 52.2089 55.159C51.063 50.415 50.8671 45.4897 51.6323 40.669ZM79.1181 93.8304C76.0533 99.9672 71.3496 105.127 65.533 108.733C59.7164 112.339 53.0161 114.25 46.1806 114.251C40.248 114.285 34.3978 112.855 29.144 110.087C32.2062 103.943 36.9075 98.7756 42.7235 95.1598C48.5396 91.5439 55.2415 89.6223 62.0815 89.6094C68.0197 89.586 73.8719 91.0359 79.1181 93.8304ZM96.7796 93.5452C101.136 91.2504 105.906 89.8562 110.807 89.4448C115.709 89.0334 120.643 89.6133 125.318 91.1501C129.993 92.6869 134.314 95.1494 138.025 98.3922C141.736 101.635 144.762 105.592 146.924 110.03C142.568 112.324 137.798 113.719 132.896 114.13C127.995 114.541 123.06 113.962 118.386 112.425C113.711 110.888 109.39 108.425 105.679 105.183C101.968 101.94 98.9419 97.9828 96.7796 93.5452ZM88.034 9.29695C95.2655 9.24682 102.352 11.3346 108.411 15.3004C114.469 19.2661 119.233 24.9345 122.107 31.5996C114.761 32.8556 107.826 35.8767 101.893 40.4056C95.9606 44.9345 91.2057 50.8369 88.034 57.6099C84.8815 50.8776 80.1681 45.0024 74.289 40.4768C68.4099 35.9512 61.5364 32.9071 54.2446 31.5996C57.1002 24.9792 61.8197 19.3413 67.8227 15.379C73.8258 11.4166 80.8508 9.30267 88.034 9.29695ZM9.32471 77.2317C9.34177 68.1019 12.7119 59.2993 18.7896 52.5105C24.8674 45.7217 33.2254 41.4241 42.2622 40.4409C41.9957 42.3304 41.8628 44.2365 41.8646 46.1449C41.8587 52.5935 43.2001 58.9716 45.8021 64.8668C48.4042 70.7621 52.209 76.0433 56.9705 80.3689C49.5757 81.2353 42.4966 83.8743 36.3296 88.0634C30.1625 92.2525 25.0883 97.869 21.5343 104.44C17.6969 100.983 14.6266 96.7533 12.5231 92.0265C10.4195 87.2996 9.32987 82.1811 9.32471 77.0035M25.339 126.457C25.3387 123.87 25.6052 121.289 26.1342 118.757C32.3809 121.804 39.2361 123.384 46.1806 123.377C53.9799 123.397 61.6575 121.435 68.4986 117.673C67.1299 124.961 67.5303 132.473 69.6655 139.572C71.8008 146.671 75.6081 153.149 80.7651 158.457C75.1701 161.755 68.8066 163.509 62.3192 163.541C55.8319 163.573 49.4513 161.882 43.8244 158.639C38.1974 155.396 33.524 150.717 30.2777 145.075C27.0314 139.434 25.3276 133.03 25.339 126.514M150.729 126.172C150.714 135.986 146.826 145.393 139.918 152.332C133.009 159.271 123.643 163.176 113.873 163.191C107.497 163.204 101.23 161.532 95.7006 158.343C103.829 149.757 108.362 138.362 108.364 126.514C108.373 123.527 108.088 120.547 107.513 117.616C114.347 121.394 122.029 123.358 129.831 123.32C136.819 123.339 143.718 121.739 149.991 118.643C150.495 121.082 150.742 123.567 150.729 126.058M119.381 80.0267C124.089 75.6733 127.839 70.3804 130.391 64.4869C132.943 58.5934 134.242 52.2295 134.203 45.8027C134.179 43.8953 134.046 41.9908 133.806 40.0986C140.869 40.8541 147.564 43.6466 153.082 48.1394C158.6 52.6322 162.706 58.633 164.903 65.4177C167.101 72.2025 167.297 79.481 165.467 86.3749C163.637 93.2689 159.859 99.4835 154.591 104.269C151.093 97.6784 146.068 92.0301 139.94 87.8009C133.812 83.5716 126.761 80.8856 119.381 79.9696" fill="white"/>
</svg>
