<svg width="194" height="182" viewBox="0 0 194 182" fill="none" xmlns="http://www.w3.org/2000/svg">
<path d="M166.024 1.89876C163.822 4.81328 162.828 8.46455 163.25 12.093C164.439 15.5631 166.908 18.4481 170.153 20.1581C172.326 17.2291 173.316 13.5898 172.928 9.96384C171.739 6.49374 169.269 3.6088 166.024 1.89876Z" fill="white"/>
<path d="M159.637 31.5137C160.902 30.1612 161.818 28.5196 162.303 26.7322C162.789 24.9447 162.83 23.0656 162.422 21.2587C162.015 19.4518 161.172 17.7718 159.967 16.3654C158.762 14.959 157.23 13.8688 155.507 13.1899C153.295 16.1242 152.301 19.7993 152.733 23.4486C153.944 26.9058 156.408 29.7833 159.637 31.5137Z" fill="white"/>
<path d="M175.702 25.9649C178.058 28.3026 181.223 29.6428 184.541 29.7071C187.811 29.0072 190.707 27.1227 192.671 24.4164C190.332 22.094 187.192 20.7551 183.896 20.6743C180.603 21.3595 177.682 23.2453 175.702 25.9649Z" fill="white"/>
<path d="M182.477 3.70546C180.054 6.75049 178.878 10.6016 179.186 14.4804C183.005 14.7842 186.794 13.6059 189.768 11.1899C192.155 8.12952 193.307 4.28398 192.994 0.41494C189.194 0.107759 185.424 1.28743 182.477 3.70546Z" fill="white"/>
<path d="M174.025 41.3855C177.384 41.3921 180.627 40.1505 183.122 37.9014C181.301 35.1297 178.482 33.1657 175.251 32.4171C171.891 32.4105 168.649 33.6522 166.153 35.9013C167.975 38.673 170.794 40.6369 174.025 41.3855Z" fill="white"/>
<path d="M178.219 116.616H143.249C142.553 116.537 141.848 116.605 141.181 116.817C140.514 117.028 139.899 117.379 139.376 117.845C138.854 118.311 138.436 118.882 138.149 119.521C137.863 120.16 137.715 120.852 137.715 121.552C137.715 122.252 137.863 122.945 138.149 123.583C138.436 124.222 138.854 124.794 139.376 125.26C139.899 125.726 140.514 126.076 141.181 126.288C141.848 126.499 142.553 126.568 143.249 126.488H178.219C179.431 126.349 180.549 125.77 181.361 124.859C182.173 123.949 182.621 122.772 182.621 121.552C182.621 120.333 182.173 119.155 181.361 118.245C180.549 117.335 179.431 116.755 178.219 116.616Z" fill="white"/>
<path d="M178.219 171.136H143.249C142.553 171.057 141.848 171.125 141.181 171.337C140.514 171.548 139.899 171.899 139.376 172.365C138.854 172.831 138.436 173.402 138.149 174.041C137.863 174.68 137.715 175.372 137.715 176.072C137.715 176.772 137.863 177.465 138.149 178.103C138.436 178.742 138.854 179.314 139.376 179.78C139.899 180.246 140.514 180.596 141.181 180.808C141.848 181.02 142.553 181.088 143.249 181.008H178.219C179.431 180.869 180.549 180.29 181.361 179.379C182.173 178.469 182.621 177.292 182.621 176.072C182.621 174.853 182.173 173.675 181.361 172.765C180.549 171.855 179.431 171.275 178.219 171.136Z" fill="white"/>
<path d="M176.928 129.908H144.668C143.926 129.925 143.22 130.231 142.702 130.762C142.183 131.292 141.893 132.005 141.893 132.747V142.554L120.73 144.877L89.825 144.167V125.327C93.969 124.799 98.067 123.958 102.084 122.81C131.892 114.423 138.344 95.9053 137.699 78.8718C137.054 61.8384 142.603 54.8057 150.603 51.7732C152.702 51.0133 154.86 50.4305 157.055 50.0311C157.264 55.1748 158.22 60.2608 159.894 65.129H162.024C160.26 60.238 159.28 55.099 159.12 49.9021C161.459 49.6763 163.814 49.6763 166.153 49.9021C163.863 48.5084 161.703 46.9104 159.701 45.1276C161.35 37.9275 165.317 31.4676 170.992 26.7391C173.934 23.9266 176.572 20.8126 178.863 17.4483L177.121 16.3513C174.879 19.5787 172.306 22.5629 169.443 25.2552C163.829 30.0547 159.802 36.4437 157.894 43.579C156.346 42.1596 154.604 40.4176 152.797 38.482C145.506 30.2233 136.022 36.2883 122.537 48.8053C109.052 61.3223 92.1477 61.7094 75.5659 44.8695C53.7579 22.4809 34.7243 22.6099 21.6267 23.9003C30.595 27.707 33.6921 36.0302 38.2085 57.2575C42.983 79.5171 54.9193 89.5178 71.243 91.0018C63.6941 92.2276 61.7585 93.26 49.5641 101.712C40.901 106.429 30.7414 107.586 21.2395 104.938C31.1757 108.1 42.983 118.552 53.4999 122.165C59.755 124.307 66.2612 125.63 72.8561 126.101V144.167L14.2068 142.941V155.522L120.924 153.135L142.087 155.522V165.33C142.087 166.065 142.379 166.771 142.899 167.291C143.42 167.812 144.125 168.104 144.861 168.104H177.121C177.863 168.104 178.576 167.814 179.106 167.295C179.637 166.777 179.944 166.071 179.96 165.33V133.069C180.009 132.653 179.965 132.232 179.832 131.835C179.699 131.438 179.479 131.076 179.189 130.773C178.9 130.471 178.547 130.237 178.156 130.087C177.765 129.938 177.345 129.876 176.928 129.908ZM77.566 125.972C79.887 126.101 82.2133 126.101 84.5343 125.972V144.231H77.566V125.972Z" fill="white"/>
<path d="M10.7873 153.071C10.8312 153.656 10.7591 154.243 10.5751 154.8C10.3911 155.357 10.0989 155.873 9.71512 156.316C9.3314 156.76 8.86373 157.123 8.33908 157.386C7.81443 157.648 7.24311 157.804 6.65794 157.845H4.20612C3.01908 157.762 1.91275 157.214 1.12747 156.32C0.342183 155.426 -0.0585686 154.258 0.0123175 153.071V144.231C-0.0315918 143.638 0.0421538 143.042 0.229401 142.477C0.416649 141.912 0.713634 141.39 1.10335 140.94C1.49306 140.49 1.96779 140.122 2.50026 139.857C3.03273 139.591 3.61248 139.433 4.20612 139.392H6.65794C7.24901 139.433 7.82605 139.591 8.35522 139.857C8.8844 140.124 9.35506 140.493 9.73964 140.944C10.1242 141.395 10.415 141.918 10.5949 142.482C10.7748 143.047 10.8402 143.641 10.7873 144.231V153.071Z" fill="white"/>
</svg>
