<svg width="20" height="20" viewBox="0 0 20 20" fill="none" xmlns="http://www.w3.org/2000/svg">
<path fill-rule="evenodd" clip-rule="evenodd" d="M10.0004 1.85039C5.49927 1.85039 1.85039 5.49927 1.85039 10.0004C1.85039 14.5015 5.49927 18.1504 10.0004 18.1504C14.5015 18.1504 18.1504 14.5015 18.1504 10.0004C18.1504 5.49927 14.5015 1.85039 10.0004 1.85039ZM0.150391 10.0004C0.150391 4.56039 4.56039 0.150391 10.0004 0.150391C15.4404 0.150391 19.8504 4.56039 19.8504 10.0004C19.8504 15.4404 15.4404 19.8504 10.0004 19.8504C4.56039 19.8504 0.150391 15.4404 0.150391 10.0004ZM10.0004 8.15039C10.4698 8.15039 10.8504 8.53095 10.8504 9.00039V14.0004C10.8504 14.4698 10.4698 14.8504 10.0004 14.8504C9.53095 14.8504 9.15039 14.4698 9.15039 14.0004V9.00039C9.15039 8.53095 9.53095 8.15039 10.0004 8.15039ZM10.0004 7.00039C10.5527 7.00039 11.0004 6.55268 11.0004 6.00039C11.0004 5.44811 10.5527 5.00039 10.0004 5.00039C9.44811 5.00039 9.00039 5.44811 9.00039 6.00039C9.00039 6.55268 9.44811 7.00039 10.0004 7.00039Z" fill="#1F2937"/>
</svg>
