<svg width="23" height="24" viewBox="0 0 23 24" fill="none" xmlns="http://www.w3.org/2000/svg">
<path fill-rule="evenodd" clip-rule="evenodd" d="M9.07508 5.74177C9.35577 5.46108 9.81086 5.46108 10.0915 5.74177L15.8415 11.4918C16.1222 11.7725 16.1222 12.2275 15.8415 12.5082L10.0915 18.2582C9.81086 18.5389 9.35577 18.5389 9.07508 18.2582C8.79439 17.9775 8.79439 17.5225 9.07508 17.2418L14.3168 12L9.07508 6.75823C8.79439 6.47754 8.79439 6.02246 9.07508 5.74177Z" fill="white"/>
<path fill-rule="evenodd" clip-rule="evenodd" d="M9.00738 5.67401C9.3255 5.3559 9.84126 5.3559 10.1594 5.67401L15.9094 11.424C16.2275 11.7421 16.2275 12.2579 15.9094 12.576L10.1594 18.326C9.84126 18.6441 9.3255 18.6441 9.00738 18.326C8.68927 18.0079 8.68927 17.4921 9.00738 17.174L14.1814 12L9.00738 6.82601C8.68927 6.50789 8.68927 5.99213 9.00738 5.67401Z" fill="#1F2937"/>
</svg>
