<svg width="40" height="40" viewBox="0 0 40 40" fill="none" xmlns="http://www.w3.org/2000/svg">
<g filter="url(#filter0_d_556_5967)">
<path fill-rule="evenodd" clip-rule="evenodd" d="M15.7999 10.1499L15.764 10.1499C14.9544 10.1499 14.2953 10.1499 13.7603 10.1936C13.2075 10.2388 12.7127 10.3348 12.252 10.5695C11.5276 10.9386 10.9386 11.5276 10.5695 12.252C10.3348 12.7127 10.2388 13.2075 10.1936 13.7603C10.1499 14.2953 10.1499 14.9544 10.1499 15.764L10.1499 15.7999V24.1999L10.1499 24.2358C10.1499 25.0454 10.1499 25.7045 10.1936 26.2395C10.2388 26.7923 10.3348 27.2871 10.5695 27.7478C10.9386 28.4722 11.5276 29.0612 12.252 29.4303C12.7127 29.665 13.2075 29.761 13.7603 29.8062C14.2953 29.8499 14.9544 29.8499 15.7641 29.8499H15.7999H24.1999H24.2357C25.0454 29.8499 25.7045 29.8499 26.2395 29.8062C26.7923 29.761 27.2871 29.665 27.7478 29.4303C28.4722 29.0612 29.0612 28.4722 29.4303 27.7478C29.665 27.2871 29.761 26.7923 29.8062 26.2395C29.8499 25.7045 29.8499 25.0454 29.8499 24.2357V24.1999V21.9999C29.8499 21.5305 29.4693 21.1499 28.9999 21.1499C28.5305 21.1499 28.1499 21.5305 28.1499 21.9999V24.1999C28.1499 25.054 28.1492 25.6435 28.1119 26.1011C28.0753 26.5488 28.0078 26.7949 27.9156 26.976C27.7094 27.3805 27.3805 27.7094 26.976 27.9156C26.7949 28.0078 26.5488 28.0753 26.1011 28.1119C25.6435 28.1492 25.054 28.1499 24.1999 28.1499H15.7999C14.9458 28.1499 14.3563 28.1492 13.8987 28.1119C13.451 28.0753 13.2049 28.0078 13.0238 27.9156C12.6193 27.7094 12.2904 27.3805 12.0842 26.976L11.3269 27.3619L12.0842 26.976C11.992 26.7949 11.9245 26.5488 11.888 26.1011C11.8506 25.6435 11.8499 25.054 11.8499 24.1999V15.7999C11.8499 14.9458 11.8506 14.3563 11.888 13.8987C11.9245 13.451 11.992 13.2049 12.0842 13.0238C12.2904 12.6193 12.6193 12.2904 13.0238 12.0842C13.2049 11.992 13.451 11.9245 13.8987 11.888C14.3563 11.8506 14.9458 11.8499 15.7999 11.8499H17.9999C18.4693 11.8499 18.8499 11.4693 18.8499 10.9999C18.8499 10.5305 18.4693 10.1499 17.9999 10.1499H15.7999ZM22.1499 10.9999C22.1499 11.4693 22.5305 11.8499 22.9999 11.8499H26.9478L19.3989 19.3989C19.0669 19.7308 19.0669 20.269 19.3989 20.6009C19.7308 20.9329 20.269 20.9329 20.6009 20.6009L28.1499 13.052V16.9999C28.1499 17.4693 28.5305 17.8499 28.9999 17.8499C29.4693 17.8499 29.8499 17.4693 29.8499 16.9999V10.9999C29.8499 10.5305 29.4693 10.1499 28.9999 10.1499H22.9999C22.5305 10.1499 22.1499 10.5305 22.1499 10.9999Z" fill="white"/>
</g>
<defs>
<filter id="filter0_d_556_5967" x="-2" y="-1" width="44" height="44" filterUnits="userSpaceOnUse" color-interpolation-filters="sRGB">
<feFlood flood-opacity="0" result="BackgroundImageFix"/>
<feColorMatrix in="SourceAlpha" type="matrix" values="0 0 0 0 0 0 0 0 0 0 0 0 0 0 0 0 0 0 127 0" result="hardAlpha"/>
<feOffset dy="1"/>
<feGaussianBlur stdDeviation="1"/>
<feColorMatrix type="matrix" values="0 0 0 0 0.0248438 0 0 0 0 0.0970504 0 0 0 0 0.220833 0 0 0 0.05 0"/>
<feBlend mode="normal" in2="BackgroundImageFix" result="effect1_dropShadow_556_5967"/>
<feBlend mode="normal" in="SourceGraphic" in2="effect1_dropShadow_556_5967" result="shape"/>
</filter>
</defs>
</svg>
